<svg width="489" height="213" viewBox="0 0 489 213" fill="none" xmlns="http://www.w3.org/2000/svg">
<path d="M207.119 38.3456C205.475 38.2035 200.655 37.6394 191.865 37.7363C183.578 37.8277 175.225 44.7349 167.917 52.1775C154.298 66.0474 151.461 75.8081 149.412 82.5235C148.489 85.5479 147.835 88.9383 147.238 96.3771C145.03 123.889 147.788 128.628 152.538 137.548C157.862 147.545 168.4 157.025 178.022 165.314C185.854 172.06 194.772 176.185 205.752 180.648C212.088 183.224 220.335 185.503 228.181 187.466C236.027 189.429 243.315 190.769 251.519 191.449C268.579 192.862 281.488 191.301 288.182 189.739C293.46 188.508 299.757 185.484 306.491 182.179C310.239 180.339 315.749 174.014 323.092 165.18C326.952 160.536 327.858 157.247 330.69 146.958C333.103 138.194 337.026 122.109 339.158 110.699C342.433 93.1739 341.156 85.2649 340.239 82.4705C337.681 74.6756 327.971 64.6301 314.321 53.2239C298.404 39.9227 289.387 39.2437 275.881 37.2187C262.736 35.248 256.128 35.3332 236.348 34.9503C223.406 34.2896 210.738 33.6731 207.344 33.3096C205.363 33.186 202.856 33.186 200.273 33.186" stroke="#1C1CEB" stroke-width="15" stroke-linecap="round"/>
<path d="M345.977 112.437C349.717 112.437 361.165 111.885 369.965 110.483C379.538 108.958 384.121 103.551 387.81 101.765C389.809 100.742 391.907 99.6522 394.135 98.5468C395.311 97.9533 396.579 97.294 399.221 96.1431" stroke="#1C1CEB" stroke-width="10" stroke-linecap="round"/>
<path d="M342.46 131.772C349.071 132.146 368.698 134.153 375.206 136.245C376.889 137.327 378.559 138.241 380.376 138.883C381.299 139.19 382.223 139.458 384.054 140.538" stroke="#1C1CEB" stroke-width="10" stroke-linecap="round"/>
<path d="M147.472 63.1328C147.332 63.1328 139.58 60.1379 126.092 54.5404C116.286 50.4709 108.437 44.6507 97.322 37.0273C81.4588 26.1474 71.1119 19.1869 68.6243 17.7426C60.5141 13.034 52.8059 9.65305 45.0388 7.80225C42.8301 7.27595 40.462 7.51358 39.0725 7.93267C37.683 8.35176 37.2969 9.20831 37.098 10.256C36.2721 14.6063 35.9312 19.7833 40.5138 47.5971C41.5515 53.8953 41.5018 56.3268 41.1743 57.9934C40.1958 62.9719 32.4891 65.1549 18.2172 68.5132C10.989 70.214 9.01876 73.5658 8.05955 75.2614C5.28979 80.1577 13.518 87.9194 16.7429 90.5699C24.8355 97.221 39.0017 100.87 42.0672 101.916C50.4999 104.791 44.4704 125.513 42.2181 130.559C37.373 141.415 20.9712 150.416 15.2434 154.613C13.6186 155.803 12.1109 156.993 11.0933 158.736C10.0503 160.523 10.1611 164.542 10.3609 169.244C10.4862 172.19 12.3356 173.802 14.0002 175.041C15.5743 176.213 21.7022 176.193 36.7795 175.102C46.8703 174.372 61.8062 172.05 75.1911 169.519C88.576 166.989 99.9296 164.004 107.935 161.485C120.44 157.55 131.691 150.566 142.776 143.61C146.867 141.067 147.846 140.529 148.848 140.083C149.85 139.637 150.846 139.299 152.681 138.79" stroke="#1C1CEB" stroke-width="15" stroke-linecap="round"/>
<path d="M340.708 149.287C340.849 149.287 348.601 152.282 362.089 157.879C371.895 161.949 379.744 167.769 390.859 175.393C406.722 186.273 417.069 193.233 419.556 194.677C427.667 199.386 435.375 202.767 443.142 204.618C445.351 205.144 447.719 204.906 449.108 204.487C450.498 204.068 450.884 203.212 451.083 202.164C451.909 197.814 452.249 192.637 447.667 164.823C446.629 158.525 446.679 156.093 447.006 154.427C447.985 149.448 455.692 147.265 469.963 143.907C477.192 142.206 479.162 138.854 480.121 137.159C482.891 132.262 474.663 124.501 471.438 121.85C463.345 115.199 449.179 111.55 446.113 110.504C437.681 107.629 443.71 86.907 445.963 81.8605C450.808 71.0048 467.209 62.0034 472.937 57.8072C474.562 56.6168 476.07 55.4272 477.087 53.684C478.13 51.8974 478.02 47.8776 477.82 43.1761C477.694 40.2295 475.845 38.6179 474.18 37.3788C472.606 36.207 466.479 36.227 451.401 37.3178C441.31 38.0478 426.374 40.37 412.99 42.9007C399.605 45.4313 388.251 48.4156 380.245 50.9348C367.74 54.8698 356.489 61.8544 345.405 68.8104C341.313 71.3531 340.335 71.8912 339.333 72.3371C338.33 72.7831 337.335 73.1205 335.499 73.6301" stroke="#1C1CEB" stroke-width="15" stroke-linecap="round"/>
<path d="M147.82 91.485C137.992 91.485 116.944 90.5393 111.407 88.4743C110.093 88.1011 109.068 87.9752 108.067 87.8194C107.066 87.6636 106.121 87.4819 104.3 87.0786" stroke="#1C1CEB" stroke-width="10" stroke-linecap="round"/>
<path d="M141.531 116.386C141.389 116.386 136.014 116.386 126.456 116.765C119.143 117.902 115.164 119.077 113.081 120.195C111.831 120.918 110.189 121.959 106.061 124.306" stroke="#1C1CEB" stroke-width="10" stroke-linecap="round"/>
</svg>
