<svg width="277" height="531" viewBox="0 0 277 531" fill="none" xmlns="http://www.w3.org/2000/svg">
<path d="M72.1867 118.155C70.6656 118.155 65.5896 118.84 60.8927 120.457C55.1407 122.437 49.9558 126.29 41.9822 132.77C35.6636 137.906 31.363 145.53 28.7137 150.277C26.1354 154.896 24.2315 164.805 23.3718 173.149C22.3798 182.777 26.5677 189.059 29.5904 194.62C32.6097 200.175 36.6087 204.849 40.6277 209.824C44.7717 214.953 52.5615 217.947 61.9116 222.325C69.6084 225.93 79.4661 228.593 89.8592 230.945C102.586 233.825 126.717 229.785 138.092 224.355C148.088 219.583 151.443 212.433 159.075 195.619C163.234 186.455 161.338 177.666 157.594 165.184C153.592 151.845 144.512 142.432 138.361 136.837C133.238 132.178 127.836 130.813 123.324 128.59C116.09 124.995 105.74 121.3 90.9178 121.167C86.2762 121.278 81.5529 121.516 73.845 122.201" stroke="#1C1CEB" stroke-width="20" stroke-linecap="round"/>
<path d="M96.5156 242.917C96.5751 247.93 97.5408 262.088 99.4995 286.307C101.101 306.114 103.587 310.5 103.954 316.453C104.249 319.002 104.795 321.279 105.405 324.251C105.653 326.11 105.778 328.68 105.907 331.329" stroke="#1C1CEB" stroke-width="20" stroke-linecap="round"/>
<path d="M116.234 335.063C117.445 334.394 125.949 329.501 162.573 308.026C170.134 303.702 171.959 302.881 173.401 302.184C174.843 301.487 175.847 300.94 177.19 300.328" stroke="#1C1CEB" stroke-width="20" stroke-linecap="round"/>
<path d="M102.88 332.921C101.696 332.42 97.3847 330.831 92.4777 328.961C83.4046 325.504 73.7767 319.75 67.624 315.67C59.8168 311.878 53.377 309.09 51.2928 307.983C50.2522 307.402 49.2463 306.784 47.2466 305.474" stroke="#1C1CEB" stroke-width="20" stroke-linecap="round"/>
<path d="M105.687 338.705C105.687 338.963 105.734 347.224 106.605 366.806C107.427 378.261 109.022 392.799 109.848 405.509C110.674 418.22 110.683 428.664 110.692 439.424" stroke="#1C1CEB" stroke-width="20" stroke-linecap="round"/>
<path d="M116.454 444.971C116.454 445.055 117.373 446.274 122.104 453.541C133.033 470.326 141.574 484.483 149.173 492.424C154.675 497.789 163.518 505.864 168.803 510.88C174.087 515.896 175.546 517.609 177.788 520.42" stroke="#1C1CEB" stroke-width="20" stroke-linecap="round"/>
<path d="M71.6899 518.665C71.8786 517.336 73.992 510.991 90.6763 477.185C94.1719 470.033 94.828 468.422 97.1437 463.892C99.4594 459.363 103.415 451.965 108.33 441.135" stroke="#1C1CEB" stroke-width="20" stroke-linecap="round"/>
<path d="M10 14.4385C10.0682 26.4498 10.275 57.1079 15.3012 67.0569C30.105 70.5844 41.4104 70.9535 43.749 71.4306C44.9264 71.6508 46.0847 71.8264 49.9525 72.2713" stroke="#1C1CEB" stroke-width="20" stroke-linecap="round"/>
<path d="M99.8063 10C99.8063 10.1684 99.8063 27.3673 99.6967 54.0373C99.5871 63.5951 99.3679 65.0801 99.2528 66.676C99.1377 68.272 99.1334 69.934 99.1289 71.6464" stroke="#1C1CEB" stroke-width="20" stroke-linecap="round"/>
<path d="M106.976 11.9708C113.11 11.7895 127.933 12.4529 132.403 14.603C137.181 16.9016 140.93 19.8389 143.874 23.2413C146.902 26.7414 146.518 32.1726 146.747 40.2688C146.909 45.9581 141.74 49.5115 139.077 53.4854C136.305 57.6221 132.674 61.4356 129.169 64.3994C125.145 66.7553 120.416 67.7631 115.605 68.5326C114.425 68.7198 113.306 68.8983 111.322 69.0823" stroke="#1C1CEB" stroke-width="20" stroke-linecap="round"/>
<path d="M69.9919 157.038H69.8071" stroke="#1C1CEB" stroke-width="20" stroke-linecap="round"/>
<path d="M111.73 154.63L112.97 155.536" stroke="#1C1CEB" stroke-width="20" stroke-linecap="round"/>
<path d="M76.375 196.254C76.6055 196.95 77.613 199.008 79.0525 200.391C80.5748 201.853 82.5341 202.604 84.4083 203.449C86.462 204.374 88.3495 205.105 90.9532 205.271C95.3269 205.549 101.845 205.014 105.008 203.651C107.146 202.73 108.893 201.38 111.005 199.362C111.862 198.525 112.524 197.485 113.006 196.219C113.208 195.626 113.324 195.134 113.509 194.212" stroke="#1C1CEB" stroke-width="15" stroke-linecap="round"/>
<path d="M240.163 450.264C240.36 449.443 242.134 445.741 244.525 442.683C246.248 440.478 249.331 440.234 253.699 437.72C257.203 435.703 261.605 434.638 265.038 434.649C267.723 434.656 268.238 439.056 269.02 442.001C269.759 444.783 268.979 447.9 268.016 450.337C267.016 452.866 265.431 455.59 264.138 457.955C262.765 460.462 260.203 463.79 258.224 466.95C256.627 469.499 255.372 471.942 254.179 474.379C252.739 477.226 250.827 480.928 248.385 485.195C247.911 486.039 247.64 486.629 246.896 487.758" stroke="#1C1CEB" stroke-width="15" stroke-linecap="round"/>
<path d="M238.976 451.629C238.218 450.607 235.84 447.509 233.417 445.062C230.33 441.943 227.61 440.418 223.101 437.776C221.6 436.897 219.877 436.776 217.914 436.86C214.811 436.993 213.488 440.006 212.832 442.276C211.962 445.284 211.711 448.704 212.154 451.632C212.948 456.873 216.711 458.296 218.574 459.936C220.749 461.852 223.405 463.886 226.198 466.753C228.405 469.018 232.588 472.669 236.495 475.966C238.58 477.725 239.75 479.873 241.007 482.001C241.376 482.533 241.802 483.067 242.21 483.563C242.619 484.059 242.996 484.5 244.024 485.696" stroke="#1C1CEB" stroke-width="15" stroke-linecap="round"/>
</svg>
